<svg width="84px" height="34px" viewBox="0 0 84 34" version="1.1" xmlns="http://www.w3.org/2000/svg" xmlns:xlink="http://www.w3.org/1999/xlink">
    <g id="Page-1" stroke="none" stroke-width="1" fill="none" fill-rule="evenodd">
        <g id="Desktop" transform="translate(-1064.000000, -930.000000)" fill="#000000">
            <path d="M1143.10188,946.527392 C1143.02629,946.354314 1142.99838,946.092971 1142.86695,946.018499 C1141.06582,944.993128 1139.28035,943.933279 1137.43359,942.998929 C1131.78846,940.143473 1126.12086,937.333527 1120.45529,934.518755 C1118.99124,933.791272 1117.49041,933.136883 1116.03043,932.399746 C1115.66272,932.214255 1115.31339,931.885336 1115.09888,931.532283 C1114.95793,931.300592 1114.97563,930.859965 1115.10161,930.602071 C1115.2235,930.351761 1115.55036,930.133172 1115.83023,930.051804 C1116.12236,929.966299 1116.48872,929.991813 1116.78289,930.090419 C1117.60821,930.366242 1118.42604,930.673785 1119.22276,931.024769 C1127.40786,934.630463 1135.44111,938.55956 1143.37154,942.704488 C1144.72188,943.410594 1146.01774,944.229099 1147.30815,945.046913 C1147.96936,945.466164 1148.15663,946.349487 1147.86994,947.110758 C1147.45728,948.208533 1146.72389,949.050482 1145.60644,949.305618 C1143.74947,949.730385 1142.20847,950.746792 1140.62252,951.708035 C1137.63448,953.518812 1134.60081,955.255117 1131.65227,957.130023 C1128.79634,958.946316 1126.03029,960.904659 1123.21317,962.783702 C1122.58192,963.205711 1121.91935,963.584967 1121.2452,963.933883 C1120.81892,964.154541 1120.11277,963.791145 1119.88193,963.313282 C1119.65925,962.851968 1119.82473,962.445129 1120.08485,962.087939 C1120.27484,961.826596 1120.53088,961.601111 1120.79032,961.405967 C1124.19783,958.844262 1127.51341,956.158437 1131.18854,953.97323 C1135.12787,951.631494 1139.01137,949.19322 1142.91598,946.791493 C1142.99974,946.740466 1143.03991,946.617724 1143.10188,946.527392 Z M1097.97703,948.452619 C1094.75811,948.627321 1091.53852,948.799755 1088.32027,948.978239 C1082.41936,949.304955 1076.503,949.226301 1070.61218,949.882759 C1069.01414,950.061243 1067.39192,949.984102 1065.78111,949.979564 C1065.36447,949.978808 1064.91355,949.88881 1064.54462,949.686125 C1064.30471,949.55453 1064.12125,949.16958 1064.02515,948.854964 C1063.90285,948.455644 1064.25028,947.74322 1064.55537,947.661541 C1064.96865,947.550367 1065.38866,947.426336 1065.81001,947.399866 C1070.52549,947.101132 1075.24232,946.803911 1079.95981,946.53921 C1084.03756,946.310055 1088.12068,946.189805 1092.1944,945.900146 C1095.83937,945.639983 1099.48031,945.39419 1103.13671,945.393433 C1106.46651,945.392677 1109.79631,945.274696 1113.12611,945.19453 C1115.48889,945.137052 1117.85167,944.965374 1120.21244,945.006214 C1123.64774,945.065961 1127.08171,945.264108 1130.515,945.428223 C1130.82076,945.443348 1131.12854,945.624857 1131.42086,945.768552 C1131.79316,945.950818 1132.10026,946.81223 1131.96922,947.351463 C1131.85296,947.830194 1131.62583,948.269597 1131.14736,948.352789 C1130.62252,948.443543 1130.08021,948.524466 1129.55402,948.483627 C1123.86413,948.040442 1118.17088,948.28321 1112.47762,948.30968 C1107.64454,948.332369 1102.81011,948.314218 1097.97636,948.314218 C1097.97703,948.360352 1097.97703,948.406485 1097.97703,948.452619 Z" id="Fill-105" transform="translate(1106.000000, 947.000000) rotate(180.000000) translate(-1106.000000, -947.000000) "></path>
        </g>
    </g>
</svg>